<?xml version="1.0" encoding="UTF-8" standalone="no"?>
<!-- Created with Inkscape (http://www.inkscape.org/) -->
<svg
   xmlns:svg="http://www.w3.org/2000/svg"
   xmlns="http://www.w3.org/2000/svg"
   version="1.0"
   width="667.26715"
   height="480.85715"
   id="svg2">
  <defs
     id="defs4" />
  <g
     transform="translate(-45.705396,-66.790771)"
     id="layer1">
    <path
       d="M 166.1647,547.26841 C 162.67275,546.38668 159.5189,543.67187 158.31045,540.50759 C 157.5014,538.38915 157.661,535.155 158.6802,533.01474 C 159.3709,531.56431 162.82866,527.79918 164.8971,526.24517 L 165.93909,525.46236 L 163.14764,522.81075 C 156.98457,516.9564 156.41134,510.82948 161.59946,506.26271 C 163.82241,504.30601 166.0228,503.56317 169.59597,503.56317 C 173.39373,503.56317 175.75935,504.32083 177.93162,506.23296 C 183.23112,510.89776 181.85405,516.84797 174.2688,522.05975 L 172.45733,523.30439 L 174.08358,524.61396 C 180.88045,530.08736 183.13706,534.57842 181.65393,539.6802 C 180.86121,542.40705 178.18325,545.35747 175.42325,546.54479 C 173.25442,547.47779 168.47367,547.85144 166.1647,547.26841 z M 174.03604,545.0581 C 178.11122,542.97912 178.85399,538.25979 175.73388,534.27041 C 175.03439,533.37605 172.91007,531.27565 171.01318,529.60283 L 167.56429,526.56144 L 166.32645,527.75054 C 163.77761,530.19913 162.54451,533.10843 162.50207,536.77361 C 162.45656,540.70342 163.89421,543.63135 166.5608,545.03965 C 168.45336,546.03919 172.09535,546.04819 174.03604,545.0581 z M 176.17921,515.56015 C 176.74078,513.68536 176.7705,510.63477 176.24082,509.2368 C 175.27514,506.68807 173.01159,505.32285 169.75152,505.32285 C 167.02291,505.32285 165.03971,506.27067 163.71105,508.20974 C 161.42995,511.53876 162.69464,515.03672 167.76415,519.42001 L 170.89383,522.12603 L 173.30815,519.60549 C 174.89728,517.94647 175.87859,516.56379 176.17921,515.56015 z M 209.23644,547.42156 C 209.23644,547.29708 211.98711,538.86178 215.34903,528.67646 C 218.71095,518.49115 221.46162,509.99572 221.46162,509.79778 C 221.46162,509.57236 218.51896,509.4823 213.58935,509.5568 L 205.71707,509.67575 L 204.05,510.88067 C 203.13311,511.54336 201.98154,512.67567 201.49094,513.39688 C 199.75685,515.94616 199.92542,514.09134 201.8744,509.17745 L 203.80731,504.30408 L 215.22769,504.30408 C 226.18112,504.30408 226.64806,504.33272 226.64806,505.00451 C 226.64806,505.38979 223.46037,515.14215 219.56431,526.67643 L 212.48055,547.64791 L 210.85849,547.64791 C 209.96636,547.64791 209.23644,547.54607 209.23644,547.42156 z M 253.50641,547.01902 C 252.19527,546.57191 251.00375,545.73274 249.42798,544.14658 C 245.5128,540.20559 244.05587,536.38022 244.06516,530.06584 C 244.07214,525.3294 244.76434,522.39476 246.88994,518.09005 C 250.98917,509.78841 259.76612,503.56317 267.37137,503.56317 C 270.87833,503.56317 270.9688,504.35672 267.529,504.94595 C 260.76721,506.10419 254.93963,511.65261 251.98965,519.74093 C 251.44133,521.24433 251.06226,522.54395 251.14729,522.62896 C 251.2323,522.71399 252.29801,522.29363 253.51552,521.69485 C 259.02972,518.9829 263.99716,519.64668 267.54072,523.56897 C 269.47571,525.71079 270.39465,528.04983 270.6355,531.44632 C 271.08971,537.85176 267.54627,544.29713 262.29304,546.62088 C 260.0059,547.63261 255.85708,547.82058 253.50641,547.01902 z M 260.69379,545.25885 C 262.38869,544.38238 264.00354,542.22963 264.65999,539.9715 C 265.85084,535.87509 264.82799,529.22134 262.47632,525.76658 C 261.14711,523.81392 259.85758,523.07588 257.49384,522.915 C 255.6422,522.78897 255.03953,522.93333 252.95468,524.00237 C 250.76098,525.12724 250.52379,525.36474 250.24374,526.71692 C 249.77373,528.98629 250.16146,536.44187 250.86317,538.62754 C 251.65417,541.09136 253.54013,543.88318 255.13565,544.95222 C 256.60948,545.93968 259.11038,546.07764 260.69379,545.25885 z M 291.52407,547.27667 C 288.87115,546.65033 286.97529,544.33619 287.81261,542.74639 C 288.79652,540.87828 290.5024,540.8709 293.50111,542.72183 C 296.00233,544.26565 298.90968,544.7308 301.24368,543.9605 C 303.11854,543.34172 306.09776,540.53552 306.83445,538.69437 C 307.52207,536.97585 307.63761,533.33478 307.06581,531.40435 C 306.50545,529.51252 304.5229,526.64397 302.82234,525.26442 C 299.70428,522.73496 294.84009,520.99761 290.83027,520.98123 C 289.96431,520.97767 289.25581,520.83238 289.25581,520.6583 C 289.25581,520.48423 291.01538,516.73331 293.16596,512.32295 L 297.0761,504.30408 L 304.65022,504.30408 C 308.81597,504.30408 312.22435,504.36439 312.22435,504.43808 C 312.22435,504.51176 311.72257,505.67871 311.10927,507.0313 L 309.99418,509.49052 L 303.59607,509.49052 L 297.19794,509.49052 L 295.80169,512.31232 C 295.03375,513.86429 294.45539,515.17987 294.51645,515.23581 C 294.57752,515.29174 295.71108,515.61012 297.03547,515.94331 C 302.88643,517.41526 307.69418,520.81101 310.0322,525.12297 C 311.2553,527.37875 311.2982,527.59609 311.2982,531.53875 C 311.2982,535.41913 311.23719,535.74366 310.05664,538.14358 C 306.75659,544.85205 298.49631,548.92281 291.52407,547.27667 z M 403.1723,547.46582 C 402.96854,547.39789 402.37206,547.24834 401.84679,547.13356 C 400.56852,546.85424 398.912,545.27259 398.912,544.33144 C 398.912,543.23199 400.22217,542.09101 401.4847,542.09101 C 402.08466,542.09101 403.87676,542.69401 405.46715,543.43096 C 409.01205,545.0737 411.57478,545.24188 414.01321,543.99192 C 415.74112,543.10614 417.52129,540.92554 418.20316,538.85952 C 419.24696,535.69683 417.49206,530.34643 414.7624,528.36906 C 412.75858,526.91749 409.61678,525.79076 407.57307,525.79076 C 405.4763,525.79076 405.54961,525.11953 407.71617,524.47982 C 411.60915,523.33036 414.46414,520.72076 415.41785,517.44012 C 416.62011,513.30448 415.07599,509.7384 411.42184,508.21159 C 408.34766,506.92712 405.46607,507.72907 402.47209,510.70227 C 399.86527,513.291 398.98406,513.12655 400.57656,510.34858 C 403.15966,505.84261 406.61769,503.57287 410.90898,503.5668 C 414.18415,503.56213 415.96583,504.112 417.82106,505.69998 C 422.21724,509.46296 421.90135,514.88735 416.99209,519.93509 L 415.25255,521.72368 L 417.0378,522.62829 C 419.33446,523.79209 421.6747,526.46167 422.45333,528.80598 C 423.37193,531.57165 423.07982,536.09908 421.80614,538.83766 C 419.81714,543.11433 416.01073,546.09209 411.24102,547.10278 C 409.00478,547.57663 404.1582,547.79473 403.1723,547.46582 z M 540.42534,547.32383 C 535.9777,545.86529 532.19245,540.87071 530.37887,534.06758 C 529.76728,531.77329 529.60516,530.07192 529.60783,525.976 C 529.61194,519.70325 530.24509,516.41643 532.26517,512.18125 C 535.72687,504.92368 541.72457,501.8316 547.28125,504.43986 C 551.2454,506.30057 554.95526,511.7856 556.2186,517.65369 C 556.99642,521.2663 556.98916,529.04508 556.20426,533.01474 C 554.98823,539.16519 551.41685,544.56513 547.28626,546.49882 C 545.31652,547.42093 541.95429,547.82521 540.42534,547.32383 z M 545.85276,544.65122 C 549.36991,542.47751 551.13793,534.23729 550.687,522.11973 C 550.31803,512.20259 548.39656,506.79776 544.86352,505.73925 C 538.72277,503.89943 535.19977,512.64225 535.73857,528.38398 C 536.08481,538.49799 537.92828,543.90419 541.53913,545.39444 C 542.73456,545.88782 544.28386,545.6209 545.85276,544.65122 z M 573.76915,547.09222 C 573.76915,546.70739 574.15584,546.53653 575.02671,546.53653 C 577.23488,546.53653 581.0119,545.11722 583.31442,543.42218 C 586.7737,540.8756 590.31379,535.83579 591.91758,531.1744 C 592.32734,529.98338 592.66261,528.86592 592.66261,528.69113 C 592.66261,528.51632 591.70404,528.84929 590.53247,529.43106 C 587.50547,530.93408 585.19039,531.48307 582.88306,531.2449 C 577.4121,530.68028 573.55969,526.19812 573.12762,519.89501 C 572.68877,513.4922 575.82401,507.29777 580.8652,504.60746 C 582.24034,503.87361 583.0149,503.7484 586.17956,503.7484 C 589.52548,503.7484 590.04679,503.84401 591.56394,504.73596 C 595.04292,506.78127 597.94056,510.87286 599.16311,515.46642 C 599.87121,518.12658 599.8409,523.72845 599.10069,527.01425 C 596.56396,538.27501 586.11554,547.64791 576.09926,547.64791 C 574.27501,547.64791 573.76915,547.52725 573.76915,547.09222 z M 590.19035,527.63529 C 593.4884,526.40132 593.58876,526.17894 593.58876,520.10258 C 593.58876,515.59052 593.46988,514.51822 592.73352,512.38726 C 591.63577,509.21039 590.10907,507.12162 588.15674,506.12564 C 585.01983,504.52525 581.57344,505.97916 579.69651,509.69469 C 578.85616,511.35817 578.77265,511.93997 578.79518,515.97358 C 578.81589,519.67396 578.9604,520.77711 579.6575,522.55502 C 581.72711,527.8336 585.19269,529.50515 590.19035,527.63529 z M 346.67714,541.35009 L 346.67714,535.79319 L 337.76839,535.79319 L 328.85967,535.79319 L 328.96996,533.51711 L 329.08029,531.24105 L 338.71224,517.42041 L 348.3442,503.59981 L 350.09938,503.58147 L 351.85454,503.56317 L 351.95167,517.3628 L 352.04881,531.16244 L 354.93788,531.27095 L 357.82695,531.37949 L 357.71633,533.49371 L 357.60571,535.60796 L 354.73465,535.71617 L 351.86358,535.82434 L 351.86358,541.36569 L 351.86358,546.90699 L 349.27036,546.90699 L 346.67714,546.90699 L 346.67714,541.35009 z M 346.67714,520.90069 C 346.67714,514.63432 346.54258,510.59457 346.34091,510.80566 C 345.51845,511.66664 332.2292,530.67913 332.2292,530.9948 C 332.2292,531.20626 335.12456,531.34767 339.45317,531.34767 L 346.67714,531.34767 L 346.67714,520.90069 z M 441.14445,546.37093 C 441.14445,546.07609 443.86792,543.11704 447.19661,539.79527 C 457.30077,529.71213 461.15652,523.49277 461.14562,517.29556 C 461.13944,513.734 458.65184,509.84624 455.64385,508.69689 C 454.2334,508.15798 450.68428,508.25293 449.20977,508.86901 C 447.31217,509.66186 445.28278,511.61307 444.26328,513.62486 C 443.25214,515.62027 442.0859,516.12294 442.46688,514.39912 C 443.73748,508.65032 446.63993,505.04974 450.93971,503.88843 C 453.43605,503.21419 458.06744,503.65178 460.24663,504.76775 C 465.71988,507.57061 467.89696,513.84825 465.4752,519.84399 C 463.49553,524.74511 460.68588,528.51299 452.96053,536.62673 L 447.75776,542.09101 L 455.65748,542.08286 C 462.60831,542.07571 463.74292,541.99043 465.10284,541.37298 C 465.95294,540.98704 466.93065,540.24052 467.27563,539.71406 C 467.8545,538.83048 468.92792,538.38963 468.92966,539.03472 C 468.9301,539.18753 468.31117,541.02131 467.5544,543.10977 L 466.17833,546.90699 L 453.66137,546.90699 C 442.9859,546.90699 441.14445,546.82812 441.14445,546.37093 z M 491.89747,546.40291 C 491.89747,546.07042 492.55953,545.82202 493.84239,545.67321 C 495.31012,545.50295 495.99525,545.20854 496.635,544.4731 L 497.48272,543.49857 L 497.37591,526.64679 L 497.26914,509.79497 L 496.35682,509.05649 C 495.6745,508.50418 495.16086,508.38233 494.31929,508.57304 C 493.70043,508.7133 492.819,508.9132 492.36055,509.01722 C 491.88333,509.12555 491.52702,509.03075 491.52702,508.79543 C 491.52702,508.2856 500.87339,503.56317 501.88245,503.56317 C 502.60388,503.56317 502.61826,503.90836 502.72124,523.71464 C 502.84124,546.79504 502.58507,545.17972 506.19768,545.63109 C 507.53426,545.79809 508.19772,546.05116 508.19772,546.39398 C 508.19772,546.81549 506.74374,546.90699 500.04759,546.90699 C 493.42077,546.90699 491.89747,546.81278 491.89747,546.40291 z M 46.307625,541.68495 C 46.409905,541.37813 47.300242,541.05113 48.487421,540.88442 C 53.597441,540.16688 58.238291,536.2334 61.252411,530.06513 C 62.152281,528.22361 62.993511,526.2588 63.121821,525.69889 L 63.355121,524.6809 L 60.814551,525.87127 C 57.948561,527.21408 54.566541,527.63481 52.396071,526.91848 C 50.39175,526.25699 47.57702,523.51733 46.586182,521.26352 C 45.50534,518.805 45.399717,513.59892 46.377709,510.98819 C 47.879915,506.97803 51.054904,503.61896 54.124291,502.79245 C 66.441621,499.47573 74.064751,515.61127 66.753611,529.52441 C 64.241261,534.30542 59.207991,538.90375 54.330801,540.87375 C 51.569791,541.98895 46.01922,542.55019 46.307625,541.68495 z M 62.300691,523.43068 L 63.948911,522.46477 L 64.215221,519.26781 C 64.989051,509.97802 60.815371,502.87159 55.436221,504.32006 C 53.676771,504.79383 51.635111,507.1351 51.088519,509.30577 C 49.714033,514.76439 51.545481,521.88471 54.862041,523.97647 C 56.528741,525.02769 60.011691,524.77215 62.300691,523.43068 z M 698.88629,541.71117 C 694.21536,540.53289 691.20502,537.013 691.20502,532.73008 C 691.20502,529.7199 692.39306,527.56375 695.74433,524.49223 L 698.45809,522.005 L 695.89294,519.545 C 692.79497,516.57402 691.58074,514.2609 691.58715,511.34283 C 691.59293,508.77479 692.50652,506.73375 694.42431,505.00477 C 696.71375,502.94068 698.72405,502.3295 702.58501,502.52358 C 706.14731,502.70269 707.62299,503.25602 709.66698,505.17911 C 711.39081,506.80099 712.05299,508.24056 712.0716,510.40708 C 712.09852,513.5238 710.20277,516.21545 706.04117,518.96949 C 704.65113,519.88934 704.1269,520.60432 704.84256,520.60432 C 705.63681,520.60432 710.95927,526.05213 711.81522,527.74116 C 715.22585,534.47184 710.77028,541.43841 702.74933,541.91612 C 701.39191,541.99695 699.65353,541.90474 698.88629,541.71117 z M 706.15047,539.58358 C 708.77073,538.05329 709.80745,534.37933 708.39167,531.64148 C 707.62633,530.16149 704.94798,527.2862 702.17569,524.9686 L 699.99519,523.14564 L 698.58664,524.52101 C 696.47363,526.58437 695.48885,529.10483 695.48533,532.45905 C 695.481,536.5733 697.14295,539.21831 700.38916,540.26364 C 701.82987,540.72761 704.78998,540.37819 706.15047,539.58358 z M 705.41124,516.52597 C 708.33883,513.36384 709.02485,510.22167 707.48296,507.03652 C 706.09528,504.16998 702.06638,503.09301 698.74509,504.70085 C 695.82482,506.11452 694.82324,509.38031 696.37634,512.42464 C 697.11566,513.87385 702.15744,518.74047 702.92712,518.74792 C 703.15992,518.75018 704.27776,517.7503 705.41124,516.52597 z M 88.836931,299.99536 L 88.836931,66.790771 L 91.059691,66.790771 L 93.282451,66.790771 L 93.282451,299.99536 L 93.282451,533.19996 L 91.059691,533.19996 L 88.836931,533.19996 L 88.836931,299.99536 z M 101.43257,299.99536 L 101.43257,66.790771 L 103.65533,66.790771 L 105.87809,66.790771 L 105.87809,299.99536 L 105.87809,533.19996 L 103.65533,533.19996 L 101.43257,533.19996 L 101.43257,299.99536 z M 125.88293,299.99536 L 125.88293,66.790771 L 128.29093,66.790771 L 130.69891,66.790771 L 130.69891,299.99536 L 130.69891,533.19996 L 128.29093,533.19996 L 125.88293,533.19996 L 125.88293,299.99536 z M 138.47858,299.99536 L 138.47858,66.790771 L 144.03548,66.790771 L 149.59238,66.790771 L 149.59238,299.99536 L 149.59238,533.19996 L 144.03548,533.19996 L 138.47858,533.19996 L 138.47858,299.99536 z M 375.07905,532.95298 C 374.9432,532.81717 374.8321,427.87509 374.8321,299.7484 L 374.8321,66.790771 L 377.2401,66.790771 L 379.64809,66.790771 L 379.64809,299.99536 L 379.64809,533.19996 L 377.48704,533.19996 C 376.29849,533.19996 375.21489,533.08883 375.07905,532.95298 z M 387.05728,300.01304 L 387.05728,66.790771 L 389.46553,66.790771 L 391.87382,66.790771 L 391.78091,299.90275 L 391.68803,533.01474 L 389.37266,533.12502 L 387.05728,533.23531 L 387.05728,300.01304 z M 617.48343,299.99536 L 617.48343,66.790771 L 619.70619,66.790771 L 621.92895,66.790771 L 621.92895,299.99536 L 621.92895,533.19996 L 619.70619,533.19996 L 617.48343,533.19996 L 617.48343,299.99536 z M 636.00643,299.99536 L 636.00643,66.790771 L 638.41442,66.790771 L 640.82241,66.790771 L 640.82241,299.99536 L 640.82241,533.19996 L 638.41442,533.19996 L 636.00643,533.19996 L 636.00643,299.99536 z M 660.82726,299.99536 L 660.82726,66.790771 L 663.05002,66.790771 L 665.27278,66.790771 L 665.27278,299.99536 L 665.27278,533.19996 L 663.05002,533.19996 L 660.82726,533.19996 L 660.82726,299.99536 z M 673.4229,299.99536 L 673.4229,66.790771 L 675.64566,66.790771 L 677.86842,66.790771 L 677.86842,299.99536 L 677.86842,533.19996 L 675.64566,533.19996 L 673.4229,533.19996 L 673.4229,299.99536 z M 157.37204,281.28713 L 157.37204,66.790771 L 162.92894,66.790771 L 168.48583,66.790771 L 168.48583,281.28713 L 168.48583,495.78351 L 162.92894,495.78351 L 157.37204,495.78351 L 157.37204,281.28713 z M 175.89504,281.28713 L 175.89504,66.790771 L 184.41561,66.790771 L 192.9362,66.790771 L 192.9362,281.28713 L 192.9362,495.78351 L 184.41561,495.78351 L 175.89504,495.78351 L 175.89504,281.28713 z M 201.08632,281.28713 L 201.08632,66.790771 L 209.42167,66.790771 L 217.75702,66.790771 L 217.75702,281.28713 L 217.75702,495.78351 L 209.42167,495.78351 L 201.08632,495.78351 L 201.08632,281.28713 z M 225.90715,281.28713 L 225.90715,66.790771 L 231.09359,66.790771 L 236.28003,66.790771 L 236.28003,281.28713 L 236.28003,495.78351 L 231.09359,495.78351 L 225.90715,495.78351 L 225.90715,281.28713 z M 244.43015,281.28713 L 244.43015,66.790771 L 246.65291,66.790771 L 248.87567,66.790771 L 248.87567,281.28713 L 248.87567,495.78351 L 246.65291,495.78351 L 244.43015,495.78351 L 244.43015,281.28713 z M 256.65533,281.28713 L 256.65533,66.790771 L 268.32482,66.790771 L 279.99431,66.790771 L 279.99431,281.28713 L 279.99431,495.78351 L 268.32482,495.78351 L 256.65533,495.78351 L 256.65533,281.28713 z M 287.77397,281.28713 L 287.77397,66.790771 L 293.14564,66.790771 L 298.51731,66.790771 L 298.51731,281.28713 L 298.51731,495.78351 L 293.14564,495.78351 L 287.77397,495.78351 L 287.77397,281.28713 z M 318.89264,281.28713 L 318.89264,66.790771 L 321.30063,66.790771 L 323.70862,66.790771 L 323.70862,281.28713 L 323.70862,495.78351 L 321.30063,495.78351 L 318.89264,495.78351 L 318.89264,281.28713 z M 331.11781,281.28713 L 331.11781,66.790771 L 333.5258,66.790771 L 335.93379,66.790771 L 335.93379,281.28713 L 335.93379,495.78351 L 333.5258,495.78351 L 331.11781,495.78351 L 331.11781,281.28713 z M 356.30909,281.28713 L 356.30909,66.790771 L 361.68076,66.790771 L 367.05243,66.790771 L 367.05243,281.28713 L 367.05243,495.78351 L 361.68076,495.78351 L 356.30909,495.78351 L 356.30909,281.28713 z M 399.65292,281.28713 L 399.65292,66.790771 L 402.06091,66.790771 L 404.4689,66.790771 L 404.4689,281.28713 L 404.4689,495.78351 L 402.06091,495.78351 L 399.65292,495.78351 L 399.65292,281.28713 z M 430.77156,281.28713 L 430.77156,66.790771 L 433.17956,66.790771 L 435.58755,66.790771 L 435.58755,281.28713 L 435.58755,495.78351 L 433.17956,495.78351 L 430.77156,495.78351 L 430.77156,281.28713 z M 442.99675,281.28713 L 442.99675,66.790771 L 448.55365,66.790771 L 454.11056,66.790771 L 454.11056,281.28713 L 454.11056,495.78351 L 448.55365,495.78351 L 442.99675,495.78351 L 442.99675,281.28713 z M 461.51975,281.28713 L 461.51975,66.790771 L 467.26189,66.790771 L 473.00401,66.790771 L 473.00401,281.28713 L 473.00401,495.78351 L 467.26189,495.78351 L 461.51975,495.78351 L 461.51975,281.28713 z M 486.71103,281.28713 L 486.71103,66.790771 L 492.0827,66.790771 L 497.45437,66.790771 L 497.45437,281.28713 L 497.45437,495.78351 L 492.0827,495.78351 L 486.71103,495.78351 L 486.71103,281.28713 z M 511.53186,281.28713 L 511.53186,66.790771 L 516.90353,66.790771 L 522.2752,66.790771 L 522.2752,281.28713 L 522.2752,495.78351 L 516.90353,495.78351 L 511.53186,495.78351 L 511.53186,281.28713 z M 530.42532,281.28713 L 530.42532,66.790771 L 538.94591,66.790771 L 547.46648,66.790771 L 547.46648,281.28713 L 547.46648,495.78351 L 538.94591,495.78351 L 530.42532,495.78351 L 530.42532,281.28713 z M 561.54396,281.28713 L 561.54396,66.790771 L 563.76672,66.790771 L 565.98948,66.790771 L 565.98948,281.28713 L 565.98948,495.78351 L 563.76672,495.78351 L 561.54396,495.78351 L 561.54396,281.28713 z M 573.76915,281.28713 L 573.76915,66.790771 L 582.28973,66.790771 L 590.81031,66.790771 L 590.81031,281.28713 L 590.81031,495.78351 L 582.28973,495.78351 L 573.76915,495.78351 L 573.76915,281.28713 z M 598.96043,281.28713 L 598.96043,66.790771 L 601.18319,66.790771 L 603.40595,66.790771 L 603.40595,281.28713 L 603.40595,495.78351 L 601.18319,495.78351 L 598.96043,495.78351 L 598.96043,281.28713 z "
       style="fill:#000000"
       id="path2224" />
  </g>
</svg>
